<?xml version="1.0" encoding="utf-8"?>
<!-- Generator: Adobe Illustrator 15.1.0, SVG Export Plug-In . SVG Version: 6.00 Build 0)  -->
<!DOCTYPE svg PUBLIC "-//W3C//DTD SVG 1.1//EN" "http://www.w3.org/Graphics/SVG/1.1/DTD/svg11.dtd">
<svg version="1.1" id="Layer_1" xmlns="http://www.w3.org/2000/svg" xmlns:xlink="http://www.w3.org/1999/xlink" x="0px" y="0px"
	 width="1080px" height="2949px" viewBox="0 0 1080 2949" enable-background="new 0 0 1080 2949" xml:space="preserve">
<rect x="-11" fill="#FFFFFF" stroke="#000000" stroke-miterlimit="10" width="11" height="0"/>
<rect fill="#FFFFFF" stroke="#000000" stroke-miterlimit="10" width="1080" height="120"/>
<text transform="matrix(1 0 0 1 54.5859 84.7109)" font-family="'MyriadPro-Regular'" font-size="75.75">Logo</text>
<text transform="matrix(1 0 0 1 630.5859 74.7109)" font-family="'MyriadPro-Regular'" font-size="37.75">Links, links links links </text>
<rect y="120" fill="none" stroke="#000000" stroke-miterlimit="10" width="720" height="360"/>
<rect x="720" y="120" fill="none" stroke="#000000" stroke-miterlimit="10" width="360" height="360"/>
<rect x="360" y="480" fill="none" stroke="#000000" stroke-miterlimit="10" width="720" height="347"/>
<rect y="480" fill="none" stroke="#000000" stroke-miterlimit="10" width="360" height="347"/>
<rect y="826" fill="none" stroke="#000000" stroke-miterlimit="10" width="720" height="360"/>
<rect x="720" y="826" fill="none" stroke="#000000" stroke-miterlimit="10" width="360" height="360"/>
<rect x="360" y="1186" fill="none" stroke="#000000" stroke-miterlimit="10" width="720" height="347"/>
<rect y="1186" fill="none" stroke="#000000" stroke-miterlimit="10" width="360" height="347"/>
<rect x="91" y="1637" fill="none" width="204" height="182"/>
<text transform="matrix(1 0 0 1 91 1663.8027)" font-family="'MyriadPro-Regular'" font-size="37.75">Image</text>
<rect x="685" y="577" fill="none" width="204" height="182"/>
<text transform="matrix(1 0 0 1 685 603.8022)" font-family="'MyriadPro-Regular'" font-size="37.75">Image</text>
<rect x="789" y="1637" fill="none" width="204" height="182"/>
<text transform="matrix(1 0 0 1 789 1663.8027)" font-family="'MyriadPro-Regular'" font-size="37.75">Link text</text>
<rect x="72" y="581" fill="none" width="204" height="182"/>
<text transform="matrix(1 0 0 1 72 607.8022)" font-family="'MyriadPro-Regular'" font-size="37.75">Link text</text>
<rect x="91" y="959" fill="none" width="204" height="182"/>
<text transform="matrix(1 0 0 1 91 985.8022)" font-family="'MyriadPro-Regular'" font-size="37.75">Image</text>
<rect x="685" y="1299" fill="none" width="204" height="182"/>
<text transform="matrix(1 0 0 1 685 1325.8022)" font-family="'MyriadPro-Regular'" font-size="37.75">Image</text>
<rect x="789" y="959" fill="none" width="204" height="182"/>
<text transform="matrix(1 0 0 1 789 985.8022)" font-family="'MyriadPro-Regular'" font-size="37.75">Link text</text>
<rect x="72" y="1303" fill="none" width="204" height="182"/>
<text transform="matrix(1 0 0 1 72 1329.8022)" font-family="'MyriadPro-Regular'" font-size="37.75">Link text</text>
<rect y="1536" fill="none" stroke="#000000" stroke-miterlimit="10" width="720" height="360"/>
<rect x="720" y="1536" fill="none" stroke="#000000" stroke-miterlimit="10" width="360" height="360"/>
<rect x="360" y="1896" fill="none" stroke="#000000" stroke-miterlimit="10" width="720" height="347"/>
<rect y="1896" fill="none" stroke="#000000" stroke-miterlimit="10" width="360" height="347"/>
<rect y="2242" fill="none" stroke="#000000" stroke-miterlimit="10" width="720" height="360"/>
<rect x="720" y="2242" fill="none" stroke="#000000" stroke-miterlimit="10" width="360" height="360"/>
<rect x="360" y="2602" fill="none" stroke="#000000" stroke-miterlimit="10" width="720" height="347"/>
<rect y="2602" fill="none" stroke="#000000" stroke-miterlimit="10" width="360" height="347"/>
<rect x="685" y="1993" fill="none" width="204" height="182"/>
<text transform="matrix(1 0 0 1 685 2019.8027)" font-family="'MyriadPro-Regular'" font-size="37.75">Image</text>
<rect x="72" y="1997" fill="none" width="204" height="182"/>
<text transform="matrix(1 0 0 1 72 2023.8027)" font-family="'MyriadPro-Regular'" font-size="37.75">Link text</text>
<rect x="91" y="2375" fill="none" width="204" height="182"/>
<text transform="matrix(1 0 0 1 91 2401.8027)" font-family="'MyriadPro-Regular'" font-size="37.75">Image</text>
<rect x="685" y="2715" fill="none" width="204" height="182"/>
<text transform="matrix(1 0 0 1 685 2741.8027)" font-family="'MyriadPro-Regular'" font-size="37.75">Image</text>
<rect x="789" y="2375" fill="none" width="204" height="182"/>
<text transform="matrix(1 0 0 1 789 2401.8027)" font-family="'MyriadPro-Regular'" font-size="37.75">Link text</text>
<rect x="72" y="2719" fill="none" width="204" height="182"/>
<text transform="matrix(1 0 0 1 72 2745.8027)" font-family="'MyriadPro-Regular'" font-size="37.75">Link text</text>
</svg>
