<?xml version="1.0" encoding="utf-8"?>
<!-- Generator: Adobe Illustrator 15.1.0, SVG Export Plug-In . SVG Version: 6.00 Build 0)  -->
<!DOCTYPE svg PUBLIC "-//W3C//DTD SVG 1.1//EN" "http://www.w3.org/Graphics/SVG/1.1/DTD/svg11.dtd">
<svg version="1.1" id="Layer_1" xmlns="http://www.w3.org/2000/svg" xmlns:xlink="http://www.w3.org/1999/xlink" x="0px" y="0px"
	 width="75px" height="75px" viewBox="0 0 75 75" enable-background="new 0 0 75 75" xml:space="preserve">
<g>
	<g>
		<path fill="#FFFFFF" d="M40.482,26.341c6.49,4.651,10.675,11.95,11.395,19.902c2.769-1.979,5.113-4.523,6.859-7.456
			c2.093-3.526,3.262-7.533,3.404-11.643c-3.557-1.928-7.567-2.939-11.643-2.939C47.033,24.206,43.613,24.94,40.482,26.341z"/>
	</g>
	<g>
		<path fill="#FFFFFF" d="M45.652,61.091c1.742-2.963,2.833-6.266,3.215-9.682c-3.5,1.556-7.313,2.366-11.17,2.366h-0.036
			c-3.979-0.003-7.903-0.872-11.487-2.525c0.401,3.468,1.537,6.818,3.34,9.807c2.033,3.374,4.861,6.221,8.212,8.273
			C40.971,67.248,43.699,64.415,45.652,61.091z"/>
	</g>
	<g>
		<path fill="#FFFFFF" d="M23.054,49.58c-7.272-4.572-12.001-12.334-12.774-20.827c-2.768,1.98-5.113,4.523-6.858,7.461
			C1.184,39.98,0,44.301,0,48.707c0,6.543,2.548,12.699,7.177,17.328c4.627,4.628,10.78,7.177,17.324,7.177
			c3.602,0,7.096-0.782,10.274-2.25C27.797,66.071,23.414,58.14,23.054,49.58z"/>
	</g>
	<g>
		<path fill="#FFFFFF" d="M71.664,36.357c-1.689-2.89-3.966-5.41-6.654-7.391c-0.849,8.782-5.835,16.393-13.029,20.791
			c-0.325,8.598-4.547,16.378-11.512,21.322c3.112,1.396,6.516,2.13,10.029,2.13c6.543,0,12.697-2.549,17.325-7.177
			C72.454,61.406,75,55.25,75,48.707C75,44.359,73.847,40.088,71.664,36.357z"/>
		<path fill="#FFFFFF" d="M24.523,48.729c-0.007-0.004-0.013-0.01-0.021-0.014C24.51,48.719,24.516,48.725,24.523,48.729
			L24.523,48.729z"/>
		<path fill="#FFFFFF" d="M67.823,66.035c-4.626,4.628-10.782,7.177-17.325,7.177c-3.514,0-6.915-0.735-10.029-2.132
			c6.965-4.944,11.187-12.723,11.512-21.32c7.194-4.4,12.181-12.01,13.031-20.791c2.688,1.981,4.963,4.5,6.652,7.392
			C73.847,40.094,75,44.361,75,48.711C75,55.252,72.452,61.406,67.823,66.035z"/>
	</g>
	<path fill="#FFFFFF" d="M34.52,26.341c-3.134-1.401-6.553-2.135-10.018-2.135c-3.956,0-7.858,0.958-11.342,2.778
		c0.116,4.107,1.259,8.124,3.328,11.658c1.691,2.892,3.965,5.411,6.654,7.392C23.918,38.166,28.084,30.952,34.52,26.341z"/>
	<path fill="#FFFFFF" d="M37.261,27.787c-3.265,2.102-6.005,4.963-7.959,8.323c-2.07,3.558-3.207,7.604-3.302,11.739
		c3.565,1.932,7.574,2.942,11.653,2.942c3.957,0,7.862-0.956,11.341-2.776c-0.115-4.187-1.3-8.267-3.439-11.85
		C43.513,32.743,40.656,29.862,37.261,27.787z"/>
	<path fill="#FFFFFF" d="M24.616,21.222c4.545,0,9.02,1.128,12.997,3.262c3.979-2.134,8.455-3.262,12.997-3.262
		c3.997,0,7.934,0.868,11.529,2.53c-0.568-5.588-3.022-10.765-7.047-14.789c-4.629-4.627-10.781-7.175-17.325-7.175
		c-6.515,0-12.646,2.527-17.268,7.118c-4.021,3.995-6.488,9.141-7.089,14.699C16.918,22.039,20.743,21.222,24.616,21.222z"/>
</g>
</svg>
