<?xml version="1.0" encoding="utf-8"?>
<!-- Generator: Adobe Illustrator 15.0.2, SVG Export Plug-In . SVG Version: 6.00 Build 0)  -->
<!DOCTYPE svg PUBLIC "-//W3C//DTD SVG 1.1//EN" "http://www.w3.org/Graphics/SVG/1.1/DTD/svg11.dtd">
<svg version="1.1" id="Layer_1" xmlns="http://www.w3.org/2000/svg" xmlns:xlink="http://www.w3.org/1999/xlink" x="0px" y="0px"
	 width="612px" height="792px" viewBox="0 0 612 792" enable-background="new 0 0 612 792" xml:space="preserve">
<g>
	<g>
		<path fill="#EC008C" d="M313.793,290.314c10.858,7.78,17.854,19.986,19.061,33.285c4.631-3.308,8.551-7.561,11.47-12.472
			c3.501-5.893,5.458-12.595,5.697-19.469c-5.956-3.221-12.658-4.917-19.475-4.917C324.752,286.742,319.034,287.968,313.793,290.314
			z"/>
	</g>
	<g>
		<path fill="#00AEEF" d="M322.444,348.431c2.911-4.951,4.739-10.48,5.374-16.192c-5.852,2.601-12.229,3.961-18.68,3.961h-0.061
			c-6.656-0.009-13.217-1.46-19.211-4.228c0.67,5.8,2.57,11.402,5.586,16.405c3.4,5.641,8.129,10.399,13.733,13.835
			C314.611,358.732,319.176,353.993,322.444,348.431z"/>
	</g>
	<g>
		<path fill="#00FF00" d="M284.646,329.18c-12.161-7.643-20.07-20.629-21.364-34.829c-4.631,3.308-8.551,7.56-11.47,12.472
			c-3.744,6.301-5.722,13.527-5.722,20.898c0,10.946,4.262,21.237,12.002,28.978s18.032,12.003,28.977,12.003
			c6.023,0,11.866-1.309,17.18-3.763C292.58,356.764,285.25,343.499,284.646,329.18z"/>
	</g>
	<g>
		<path fill="#0000FF" d="M365.947,307.067c-2.829-4.835-6.631-9.049-11.127-12.361c-1.422,14.687-9.762,27.414-21.794,34.772
			c-0.543,14.381-7.606,27.389-19.252,35.659c5.206,2.336,10.895,3.564,16.771,3.564c10.946,0,21.237-4.263,28.978-12.003
			s12.003-18.031,12.003-28.978C371.526,320.449,369.598,313.306,365.947,307.067z"/>
		<path fill="#0000FF" d="M287.104,327.753c-0.01-0.007-0.021-0.013-0.033-0.019C287.082,327.741,287.094,327.747,287.104,327.753
			L287.104,327.753z"/>
		<path fill="#0000FF" d="M359.523,356.699c-7.74,7.74-18.031,12.003-28.978,12.003c-5.877,0-11.565-1.229-16.771-3.564
			c11.646-8.271,18.709-21.278,19.252-35.659c12.032-7.358,20.372-20.086,21.794-34.772c4.496,3.313,8.298,7.526,11.127,12.361
			c3.65,6.239,5.579,13.382,5.579,20.654C371.526,338.667,367.264,348.958,359.523,356.699z"/>
	</g>
	<path fill="#FFF200" d="M303.824,290.314c-5.242-2.346-10.959-3.572-16.754-3.572c-6.617,0-13.144,1.603-18.969,4.646
		c0.194,6.871,2.107,13.588,5.563,19.495c2.83,4.838,6.632,9.052,11.13,12.365C286.094,310.086,293.061,298.025,303.824,290.314z"/>
	<path fill="#FFFFFF" d="M308.41,292.732c-5.461,3.514-10.045,8.301-13.313,13.918c-3.463,5.95-5.363,12.72-5.521,19.634
		c5.961,3.227,12.668,4.926,19.489,4.926c6.617,0,13.145-1.604,18.969-4.647c-0.196-7-2.176-13.828-5.753-19.817
		C318.863,301.022,314.088,296.203,308.41,292.732z"/>
	<path fill="#FF0000" d="M287.26,281.751c7.601,0,15.084,1.883,21.738,5.456c6.652-3.573,14.137-5.456,21.736-5.456
		c6.684,0,13.269,1.454,19.285,4.233c-0.955-9.345-5.059-18.006-11.791-24.737c-7.74-7.737-18.029-11.999-28.974-11.999
		c-10.895,0-21.15,4.229-28.879,11.906c-6.723,6.679-10.849,15.287-11.856,24.583C274.387,283.12,280.785,281.751,287.26,281.751z"
		/>
</g>
<g>
	<path d="M58.601,387.717h7.203l-19.853,19.852l20.205,24.304h-7.438l-16.632-20.556l-2.225,2.108v18.447h-5.505v-44.156h5.505
		v19.149L58.601,387.717z"/>
	<path d="M69.498,387.717h23.718v5.036H75.002v12.356h17.686v5.037H75.002v16.69h18.213v5.036H69.498V387.717z"/>
	<path d="M99.485,385.609l33.147,34.727v-32.619h5.505v45.971l-33.147-34.728v32.912h-5.505V385.609z"/>
	<path d="M145.461,385.609l33.147,34.727v-32.619h5.505v45.971l-33.147-34.728v32.912h-5.505V385.609z"/>
	<path d="M191.965,387.717h23.718v5.036H197.47v12.356h17.686v5.037H197.47v16.69h18.213v5.036h-23.718V387.717z"/>
	<path d="M234.368,431.873h-5.505v-39.12H218.38v-5.036h26.471v5.036h-10.483V431.873z"/>
	<path d="M275.248,405.52v-17.802h5.505v44.156h-5.505v-21.2h-21.024v21.2h-5.505v-44.156h5.505v17.802H275.248z"/>
	<path d="M311.914,420.805l-5.037,11.068h-5.915l21.083-46.03l21.082,46.03h-5.914l-5.037-11.068H311.914z M322.046,397.906
		l-7.848,17.862h15.695L322.046,397.906z"/>
	<path d="M346.295,385.609l33.146,34.727v-32.619h5.505v45.971L351.8,398.961v32.912h-5.505V385.609z"/>
	<path d="M404.687,431.873h-5.505v-39.12h-10.482v-5.036h26.471v5.036h-10.483V431.873z"/>
	<path d="M445.566,405.52v-17.802h5.505v44.156h-5.505v-21.2h-21.024v21.2h-5.505v-44.156h5.505v17.802H445.566z"/>
	<path d="M502.201,409.795c0,13.118-10.366,23.016-23.133,23.016s-23.132-9.897-23.132-23.016c0-12.649,10.482-23.015,23.132-23.015
		C491.719,386.78,502.201,397.146,502.201,409.795z M496.696,409.795c0-9.722-7.262-17.862-17.628-17.862
		c-10.365,0-17.627,8.14-17.627,17.862c0,10.072,8.081,17.861,17.627,17.861S496.696,419.867,496.696,409.795z"/>
	<path d="M507.008,385.609l33.147,34.727v-32.619h5.505v45.971l-33.147-34.728v32.912h-5.505V385.609z"/>
	<path d="M548.943,387.717h6.325l10.834,18.857l10.834-18.857h6.325l-14.406,24.947v19.209h-5.505v-19.209L548.943,387.717z"/>
</g>
<g>
	<path d="M111.998,458.876c1.977-0.61,2.18-2.122,2.18-4.651v-5.436c0-2.354,1.599-3.924,2.471-3.924h2.122v2.15h-1.163
		c-1.047,0-1.047,0.872-1.047,2.21v5.493c0,3.401-1.831,4.854-2.209,5.087c0.378,0.232,2.209,1.687,2.209,5.116v5.465
		c0,1.337,0,2.209,1.047,2.209h1.163v2.151h-2.122c-0.872,0-2.471-1.57-2.471-3.925v-5.406c0-2.558-0.204-4.069-2.18-4.68V458.876z"
		/>
	<path d="M138.247,465.811l6.25-16.714h2.645l-8.895,23.225l-8.895-23.225h2.646L138.247,465.811z"/>
	<path d="M152.026,471.014h-2.442v-21.917h2.442V471.014z"/>
	<path d="M166.415,453.369c-0.872-1.512-1.918-2.384-3.779-2.384c-1.948,0-3.633,1.396-3.633,3.401c0,1.89,1.947,2.762,3.43,3.43
		l1.454,0.64c2.849,1.25,5.261,2.675,5.261,6.163c0,3.837-3.081,6.772-6.889,6.772c-3.517,0-6.133-2.268-6.831-5.668l2.384-0.669
		c0.32,2.238,2.035,4.069,4.389,4.069s4.505-1.802,4.505-4.272c0-2.559-2.005-3.431-4.04-4.36l-1.337-0.581
		c-2.558-1.163-4.767-2.472-4.767-5.61c0-3.401,2.878-5.581,6.133-5.581c2.442,0,4.505,1.25,5.668,3.4L166.415,453.369z"/>
	<path d="M175.106,462.147c0,1.628-0.058,3.488,0.959,4.884c0.959,1.337,2.82,2.093,4.418,2.093c1.57,0,3.285-0.727,4.302-1.947
		c1.163-1.396,1.075-3.313,1.075-5.029v-13.051h2.442v13.72c0,2.384-0.174,4.273-1.918,6.075c-1.512,1.628-3.691,2.5-5.901,2.5
		c-2.064,0-4.186-0.785-5.668-2.238c-1.918-1.831-2.151-3.837-2.151-6.337v-13.72h2.442V462.147z"/>
	<path d="M195.919,464.793l-2.645,6.221H190.6l10.116-22.964l9.854,22.964h-2.703l-2.587-6.221H195.919z M200.658,453.747
		l-3.75,8.778h7.413L200.658,453.747z"/>
	<path d="M215.396,468.746h6.046v2.268h-8.488v-21.917h2.442V468.746z"/>
	<path d="M249.522,453.893c-1.744-1.802-4.157-2.907-6.686-2.907c-4.884,0-8.837,4.244-8.837,9.069s3.982,9.069,8.895,9.069
		c2.471,0,4.883-1.162,6.627-2.906v3.022c-1.89,1.366-4.215,2.151-6.541,2.151c-6.191,0-11.423-5.028-11.423-11.249
		c0-6.279,5.145-11.424,11.423-11.424c2.442,0,4.593,0.697,6.541,2.15V453.893z"/>
	<path d="M275.393,460.084c0,6.308-5.174,11.308-11.424,11.308s-11.424-5-11.424-11.308c0-6.278,5.174-11.365,11.424-11.365
		S275.393,453.806,275.393,460.084z M254.987,460.055c0,4.942,4.011,9.069,8.982,9.069s8.982-4.127,8.982-9.069
		c0-4.971-3.953-9.069-8.982-9.069S254.987,455.084,254.987,460.055z"/>
	<path d="M281.556,447.847l7.965,18.399l7.994-18.399l4.447,23.167h-2.5l-2.82-14.824h-0.058l-7.063,15.726l-7.035-15.726h-0.058
		l-2.819,14.824h-2.5L281.556,447.847z"/>
	<path d="M307.603,447.847l7.964,18.399l7.994-18.399l4.447,23.167h-2.5l-2.819-14.824h-0.059l-7.063,15.726l-7.034-15.726h-0.058
		l-2.82,14.824h-2.5L307.603,447.847z"/>
	<path d="M333.183,462.147c0,1.628-0.059,3.488,0.959,4.884c0.959,1.337,2.819,2.093,4.418,2.093c1.57,0,3.285-0.727,4.303-1.947
		c1.162-1.396,1.075-3.313,1.075-5.029v-13.051h2.441v13.72c0,2.384-0.174,4.273-1.918,6.075c-1.512,1.628-3.691,2.5-5.901,2.5
		c-2.063,0-4.186-0.785-5.668-2.238c-1.918-1.831-2.151-3.837-2.151-6.337v-13.72h2.442V462.147z"/>
	<path d="M350.856,448.166l17.092,17.906v-16.976h2.442v22.905l-17.092-17.877v16.889h-2.442V448.166z"/>
	<path d="M377.454,471.014h-2.441v-21.917h2.441V471.014z"/>
	<path d="M398.616,453.893c-1.744-1.802-4.156-2.907-6.686-2.907c-4.884,0-8.837,4.244-8.837,9.069s3.982,9.069,8.896,9.069
		c2.471,0,4.883-1.162,6.627-2.906v3.022c-1.89,1.366-4.215,2.151-6.54,2.151c-6.191,0-11.424-5.028-11.424-11.249
		c0-6.279,5.146-11.424,11.424-11.424c2.441,0,4.593,0.697,6.54,2.15V453.893z"/>
	<path d="M406.029,464.793l-2.646,6.221h-2.674l10.115-22.964l9.854,22.964h-2.703l-2.588-6.221H406.029z M410.768,453.747
		l-3.75,8.778h7.412L410.768,453.747z"/>
	<path d="M426.552,471.014h-2.441v-19.65h-5.291v-2.267H431.9v2.267h-5.349V471.014z"/>
	<path d="M436.9,471.014h-2.442v-21.917h2.442V471.014z"/>
	<path d="M463.091,460.084c0,6.308-5.175,11.308-11.424,11.308c-6.25,0-11.424-5-11.424-11.308c0-6.278,5.174-11.365,11.424-11.365
		C457.916,448.719,463.091,453.806,463.091,460.084z M442.685,460.055c0,4.942,4.012,9.069,8.982,9.069s8.981-4.127,8.981-9.069
		c0-4.971-3.953-9.069-8.981-9.069C446.638,450.985,442.685,455.084,442.685,460.055z"/>
	<path d="M466.551,448.166l17.092,17.906v-16.976h2.441v22.905l-17.092-17.877v16.889h-2.441V448.166z"/>
	<path d="M505.619,460.736c-1.977,0.61-2.18,2.122-2.18,4.68v5.406c0,2.354-1.6,3.925-2.472,3.925h-2.121v-2.151h1.162
		c1.047,0,1.047-0.872,1.047-2.209v-5.465c0-3.43,1.831-4.884,2.209-5.116c-0.378-0.232-2.209-1.686-2.209-5.087v-5.493
		c0-1.338,0-2.21-1.047-2.21h-1.162v-2.15h2.121c0.872,0,2.472,1.569,2.472,3.924v5.436c0,2.529,0.203,4.041,2.18,4.651V460.736z"/>
</g>
</svg>
