<?xml version="1.0" encoding="utf-8"?>
<!-- Generator: Adobe Illustrator 15.1.0, SVG Export Plug-In . SVG Version: 6.00 Build 0)  -->
<!DOCTYPE svg PUBLIC "-//W3C//DTD SVG 1.1//EN" "http://www.w3.org/Graphics/SVG/1.1/DTD/svg11.dtd">
<svg version="1.1" id="Layer_1" xmlns="http://www.w3.org/2000/svg" xmlns:xlink="http://www.w3.org/1999/xlink" x="0px" y="0px"
	 width="432px" height="82.843px" viewBox="142.56 27.339 432 82.843" enable-background="new 142.56 27.339 432 82.843"
	 xml:space="preserve">
<g>
	<g>
		<g>
			<path fill="#EC008C" d="M184.392,57.228c6.708,4.807,11.031,12.349,11.776,20.565c2.861-2.042,5.284-4.673,7.088-7.705
				c2.163-3.643,3.371-7.783,3.519-12.029c-3.678-1.992-7.82-3.038-12.032-3.038C191.163,55.022,187.629,55.781,184.392,57.228z"/>
		</g>
		<g>
			<path fill="#00AEEF" d="M189.736,93.137c1.8-3.061,2.929-6.475,3.322-10.003c-3.616,1.607-7.556,2.445-11.543,2.445h-0.037
				c-4.112-0.004-8.167-0.902-11.871-2.612c0.415,3.584,1.588,7.047,3.452,10.136c2.101,3.486,5.023,6.428,8.485,8.549
				C184.898,99.501,187.717,96.573,189.736,93.137z"/>
		</g>
		<g>
			<path fill="#00FF00" d="M166.383,81.242c-7.515-4.725-12.401-12.746-13.2-21.521c-2.86,2.047-5.284,4.674-7.087,7.709
				c-2.312,3.893-3.535,8.357-3.535,12.911c0,6.762,2.633,13.122,7.417,17.905c4.782,4.782,11.14,7.417,17.902,7.417
				c3.722,0,7.333-0.809,10.617-2.325C171.284,98.284,166.755,90.089,166.383,81.242z"/>
		</g>
		<g>
			<path fill="#0000FF" d="M216.616,67.578c-1.748-2.985-4.098-5.59-6.875-7.636c-0.879,9.074-6.032,16.94-13.466,21.485
				c-0.335,8.885-4.699,16.924-11.895,22.032c3.217,1.443,6.733,2.201,10.364,2.201c6.762,0,13.121-2.634,17.903-7.415
				c4.784-4.782,7.416-11.143,7.416-17.904C220.062,75.849,218.871,71.435,216.616,67.578z"/>
			<path fill="#0000FF" d="M167.901,80.363c-0.007-0.004-0.013-0.01-0.022-0.014C167.888,80.353,167.894,80.359,167.901,80.363
				L167.901,80.363z"/>
			<path fill="#0000FF" d="M212.646,98.246c-4.782,4.782-11.141,7.417-17.903,7.417c-3.632,0-7.146-0.761-10.364-2.204
				c7.196-5.108,11.56-13.146,11.895-22.03c7.435-4.547,12.587-12.412,13.467-21.485c2.777,2.047,5.127,4.65,6.874,7.638
				c2.255,3.858,3.447,8.269,3.447,12.763C220.062,87.105,217.43,93.463,212.646,98.246z"/>
		</g>
		<path fill="#FFF200" d="M178.231,57.228c-3.238-1.449-6.771-2.206-10.353-2.206c-4.088,0-8.121,0.99-11.72,2.871
			c0.12,4.245,1.301,8.395,3.438,12.046c1.747,2.988,4.097,5.592,6.875,7.64C167.276,69.448,171.582,61.993,178.231,57.228z"/>
		<path fill="#FFFFFF" d="M181.064,58.723c-3.374,2.172-6.207,5.128-8.225,8.6c-2.139,3.676-3.314,7.858-3.412,12.131
			c3.684,1.995,7.827,3.041,12.042,3.041c4.087,0,8.123-0.989,11.72-2.869c-0.121-4.326-1.345-8.543-3.555-12.245
			C187.524,63.844,184.573,60.868,181.064,58.723z"/>
		<path fill="#FF0000" d="M167.997,51.939c4.697,0,9.32,1.165,13.431,3.371c4.11-2.206,8.736-3.371,13.43-3.371
			c4.132,0,8.2,0.896,11.916,2.614c-0.588-5.774-3.125-11.124-7.284-15.282c-4.783-4.782-11.14-7.414-17.902-7.414
			c-6.732,0-13.068,2.611-17.844,7.355c-4.155,4.128-6.704,9.446-7.326,15.189C160.043,52.783,163.995,51.939,167.997,51.939z"/>
	</g>
	<g>
		<path fill="#FFFFFF" d="M250.389,42.523h4.45l-12.267,12.268l12.484,15.017h-4.596l-10.276-12.702l-1.376,1.302v11.398h-3.401
			V42.523h3.401v11.833L250.389,42.523z"/>
		<path fill="#FFFFFF" d="M257.121,42.523h14.654v3.112h-11.254v7.635h10.928v3.111h-10.928v10.312h11.254v3.112h-14.654V42.523z"/>
		<path fill="#FFFFFF" d="M275.648,41.221l20.48,21.458V42.523h3.4v28.405l-20.48-21.457v20.334h-3.4V41.221z"/>
		<path fill="#FFFFFF" d="M304.057,41.221l20.479,21.458V42.523h3.402v28.405l-20.479-21.457v20.334h-3.402L304.057,41.221
			L304.057,41.221z"/>
		<path fill="#FFFFFF" d="M332.79,42.523h14.654v3.112h-11.253v7.635h10.928v3.111h-10.928v10.312h11.253v3.112H332.79V42.523z"/>
		<path fill="#FFFFFF" d="M358.988,69.806h-3.4V45.635h-6.478v-3.112h16.356v3.112h-6.478V69.806L358.988,69.806z"/>
		<path fill="#FFFFFF" d="M384.249,53.525V42.523h3.399v27.283h-3.399V56.708h-12.989v13.098h-3.403V42.523h3.403v11.001H384.249z"
			/>
		<path fill="#FFFFFF" d="M406.902,62.966l-3.114,6.84h-3.649l13.023-28.44l13.026,28.44h-3.651l-3.112-6.84H406.902z
			 M413.16,48.819l-4.849,11.036h9.698L413.16,48.819z"/>
		<path fill="#FFFFFF" d="M428.145,41.221l20.481,21.458V42.523h3.4v28.405l-20.48-21.457v20.334h-3.401V41.221z"/>
		<path fill="#FFFFFF" d="M464.225,69.806h-3.404V45.635h-6.475v-3.112h16.355v3.112h-6.477V69.806L464.225,69.806z"/>
		<path fill="#FFFFFF" d="M489.482,53.525V42.523h3.399v27.283h-3.399V56.708h-12.991v13.098h-3.399V42.523h3.399v11.001H489.482z"
			/>
		<path fill="#FFFFFF" d="M524.475,56.164c0,8.107-6.407,14.224-14.296,14.224c-7.887,0-14.291-6.115-14.291-14.224
			c0-7.812,6.475-14.218,14.291-14.218C517.999,41.946,524.475,48.35,524.475,56.164z M521.073,56.164
			c0-6.006-4.486-11.034-10.894-11.034c-6.4,0-10.889,5.028-10.889,11.034c0,6.225,4.992,11.036,10.889,11.036
			C516.08,67.2,521.073,62.389,521.073,56.164z"/>
		<path fill="#FFFFFF" d="M527.443,41.221l20.481,21.458V42.523h3.4v28.405l-20.479-21.457v20.334h-3.403V41.221z"/>
		<path fill="#FFFFFF" d="M553.356,42.523h3.906l6.694,11.652l6.693-11.652h3.91l-8.903,15.415v11.868h-3.399V57.938L553.356,42.523
			z"/>
	</g>
	<g>
		<path fill="#FFFFFF" d="M235.408,86.491c1.223-0.378,1.348-1.312,1.348-2.872v-3.362c0-1.455,0.988-2.425,1.527-2.425h1.311v1.33
			h-0.718c-0.647,0-0.647,0.539-0.647,1.363v3.395c0,2.103-1.131,3-1.365,3.144c0.233,0.144,1.365,1.043,1.365,3.163v3.375
			c0,0.824,0,1.365,0.647,1.365h0.718v1.328h-1.311c-0.539,0-1.527-0.97-1.527-2.426v-3.338c0-1.582-0.125-2.517-1.348-2.894V86.491
			z"/>
		<path fill="#FFFFFF" d="M251.626,90.777l3.861-10.331h1.635L251.626,94.8l-5.496-14.354h1.634L251.626,90.777z"/>
		<path fill="#FFFFFF" d="M260.14,93.989h-1.509V80.446h1.509V93.989z"/>
		<path fill="#FFFFFF" d="M269.03,83.087c-0.54-0.933-1.185-1.472-2.334-1.472c-1.202,0-2.245,0.862-2.245,2.101
			c0,1.168,1.203,1.706,2.119,2.12l0.898,0.397c1.76,0.77,3.251,1.65,3.251,3.806c0,2.37-1.905,4.185-4.258,4.185
			c-2.174,0-3.79-1.402-4.222-3.503l1.474-0.413c0.198,1.383,1.258,2.514,2.712,2.514c1.455,0,2.784-1.114,2.784-2.639
			c0-1.582-1.238-2.122-2.497-2.694l-0.826-0.357c-1.581-0.72-2.946-1.529-2.946-3.466c0-2.102,1.779-3.451,3.79-3.451
			c1.508,0,2.785,0.772,3.503,2.102L269.03,83.087z"/>
		<path fill="#FFFFFF" d="M274.4,88.514c0,1.003-0.038,2.15,0.592,3.016c0.592,0.828,1.742,1.294,2.729,1.294
			c0.969,0,2.029-0.449,2.658-1.202c0.719-0.862,0.666-2.047,0.666-3.105v-8.068h1.508v8.479c0,1.475-0.108,2.639-1.186,3.754
			c-0.934,1.006-2.28,1.546-3.646,1.546c-1.275,0-2.587-0.484-3.502-1.383c-1.184-1.131-1.328-2.37-1.328-3.917v-8.479h1.509V88.514
			L274.4,88.514z"/>
		<path fill="#FFFFFF" d="M287.258,90.147l-1.634,3.844h-1.653l6.25-14.188l6.088,14.188h-1.67l-1.598-3.844H287.258z
			 M290.187,83.323l-2.318,5.421h4.581L290.187,83.323z"/>
		<path fill="#FFFFFF" d="M299.293,92.589h3.737v1.401h-5.244V80.448h1.507V92.589L299.293,92.589z"/>
		<path fill="#FFFFFF" d="M320.379,83.409c-1.078-1.111-2.567-1.794-4.132-1.794c-3.019,0-5.46,2.623-5.46,5.604
			c0,2.982,2.458,5.603,5.497,5.603c1.528,0,3.018-0.717,4.093-1.797v1.867c-1.168,0.846-2.604,1.33-4.04,1.33
			c-3.826,0-7.06-3.105-7.06-6.949c0-3.881,3.18-7.061,7.06-7.061c1.506,0,2.838,0.431,4.04,1.328v1.867h0.002V83.409z"/>
		<path fill="#FFFFFF" d="M336.364,87.239c0,3.896-3.197,6.987-7.059,6.987c-3.861,0-7.058-3.091-7.058-6.987
			c0-3.881,3.197-7.024,7.058-7.024C333.167,80.214,336.364,83.358,336.364,87.239z M323.756,87.219
			c0,3.053,2.479,5.603,5.548,5.603c3.072,0,5.55-2.55,5.55-5.603c0-3.072-2.443-5.604-5.55-5.604
			C326.198,81.615,323.756,84.147,323.756,87.219z"/>
		<path fill="#FFFFFF" d="M340.171,79.678l4.922,11.364l4.939-11.364l2.749,14.311h-1.545l-1.741-9.158h-0.035l-4.366,9.716
			l-4.345-9.716h-0.037l-1.741,9.158h-1.546L340.171,79.678z"/>
		<path fill="#FFFFFF" d="M356.265,79.678l4.923,11.364l4.94-11.364l2.746,14.311h-1.545l-1.742-9.158h-0.039l-4.364,9.716
			l-4.345-9.716h-0.037l-1.741,9.158h-1.544L356.265,79.678z"/>
		<path fill="#FFFFFF" d="M372.072,88.514c0,1.003-0.039,2.15,0.59,3.016c0.594,0.828,1.743,1.294,2.73,1.294
			c0.97,0,2.032-0.449,2.66-1.202c0.718-0.862,0.664-2.047,0.664-3.105v-8.068h1.507v8.479c0,1.475-0.109,2.639-1.186,3.754
			c-0.934,1.006-2.279,1.546-3.646,1.546c-1.277,0-2.586-0.484-3.504-1.383c-1.184-1.131-1.324-2.37-1.324-3.917v-8.479h1.508
			V88.514L372.072,88.514z"/>
		<path fill="#FFFFFF" d="M382.99,79.873l10.562,11.062V80.446h1.508v14.156l-10.559-11.049v10.436h-1.512V79.873z"/>
		<path fill="#FFFFFF" d="M399.423,93.989h-1.505V80.446h1.505V93.989z"/>
		<path fill="#FFFFFF" d="M412.5,83.409c-1.078-1.111-2.568-1.794-4.132-1.794c-3.017,0-5.46,2.623-5.46,5.604
			c0,2.982,2.459,5.603,5.495,5.603c1.528,0,3.019-0.717,4.095-1.797v1.867c-1.168,0.846-2.605,1.33-4.038,1.33
			c-3.825,0-7.06-3.105-7.06-6.949c0-3.881,3.181-7.061,7.06-7.061c1.507,0,2.837,0.431,4.038,1.328v1.869H412.5z"/>
		<path fill="#FFFFFF" d="M417.08,90.147l-1.636,3.844h-1.651l6.251-14.188l6.086,14.188h-1.667l-1.601-3.844H417.08z
			 M420.011,83.323l-2.319,5.421h4.58L420.011,83.323z"/>
		<path fill="#FFFFFF" d="M429.761,93.989h-1.51v-12.14h-3.27v-1.403h8.084v1.403h-3.305V93.989L429.761,93.989z"/>
		<path fill="#FFFFFF" d="M436.152,93.989h-1.507V80.446h1.507V93.989z"/>
		<path fill="#FFFFFF" d="M452.336,87.239c0,3.896-3.197,6.987-7.06,6.987c-3.863,0-7.057-3.091-7.057-6.987
			c0-3.881,3.193-7.024,7.057-7.024C449.139,80.214,452.336,83.358,452.336,87.239z M439.727,87.219c0,3.053,2.481,5.603,5.55,5.603
			c3.071,0,5.549-2.55,5.549-5.603c0-3.072-2.44-5.604-5.549-5.604C442.171,81.615,439.727,84.147,439.727,87.219z"/>
		<path fill="#FFFFFF" d="M454.476,79.873l10.559,11.062V80.446h1.51v14.156l-10.562-11.049v10.436h-1.506V79.873L454.476,79.873z"
			/>
		<path fill="#FFFFFF" d="M478.616,87.639c-1.224,0.376-1.348,1.313-1.348,2.894v3.339c0,1.454-0.989,2.426-1.53,2.426h-1.311
			v-1.326h0.718c0.648,0,0.648-0.538,0.648-1.367v-3.375c0-2.122,1.13-3.021,1.363-3.163c-0.233-0.141-1.363-1.041-1.363-3.143
			V80.53c0-0.826,0-1.365-0.648-1.365h-0.718v-1.33h1.311c0.541,0,1.53,0.97,1.53,2.427v3.359c0,1.562,0.124,2.495,1.348,2.873
			V87.639z"/>
	</g>
</g>
</svg>
