<?xml version="1.0" encoding="utf-8"?>
<!-- Generator: Adobe Illustrator 15.0.2, SVG Export Plug-In . SVG Version: 6.00 Build 0)  -->
<!DOCTYPE svg PUBLIC "-//W3C//DTD SVG 1.1//EN" "http://www.w3.org/Graphics/SVG/1.1/DTD/svg11.dtd">
<svg version="1.1" id="Layer_1" xmlns="http://www.w3.org/2000/svg" xmlns:xlink="http://www.w3.org/1999/xlink" x="0px" y="0px"
	 width="792px" height="612px" viewBox="0 0 792 612" enable-background="new 0 0 792 612" xml:space="preserve">
<g>
	<g>
		<path fill="#EC008C" d="M124.139,322.364c10.858,7.78,17.854,19.986,19.061,33.285c4.631-3.308,8.551-7.561,11.47-12.472
			c3.501-5.893,5.458-12.595,5.697-19.469c-5.956-3.221-12.658-4.917-19.475-4.917C135.098,318.792,129.38,320.019,124.139,322.364z
			"/>
	</g>
	<g>
		<path fill="#00AEEF" d="M132.79,380.481c2.911-4.951,4.739-10.48,5.374-16.192c-5.852,2.601-12.229,3.961-18.68,3.961h-0.061
			c-6.656-0.009-13.217-1.46-19.211-4.228c0.67,5.8,2.57,11.402,5.586,16.405c3.4,5.641,8.129,10.399,13.733,13.835
			C124.957,390.782,129.521,386.043,132.79,380.481z"/>
	</g>
	<g>
		<path fill="#00FF00" d="M94.992,361.23c-12.161-7.643-20.07-20.629-21.364-34.829c-4.631,3.308-8.551,7.56-11.47,12.472
			c-3.744,6.301-5.722,13.527-5.722,20.898c0,10.946,4.262,21.237,12.002,28.978s18.032,12.003,28.977,12.003
			c6.023,0,11.866-1.309,17.18-3.763C102.926,388.814,95.596,375.549,94.992,361.23z"/>
	</g>
	<g>
		<path fill="#0000FF" d="M176.293,339.117c-2.829-4.835-6.631-9.049-11.127-12.361c-1.422,14.687-9.762,27.414-21.794,34.772
			c-0.543,14.381-7.606,27.389-19.252,35.659c5.206,2.336,10.895,3.564,16.771,3.564c10.946,0,21.237-4.263,28.978-12.003
			s12.003-18.031,12.003-28.978C181.872,352.499,179.943,345.356,176.293,339.117z"/>
		<path fill="#0000FF" d="M97.449,359.804c-0.01-0.007-0.021-0.013-0.033-0.019C97.428,359.791,97.439,359.797,97.449,359.804
			L97.449,359.804z"/>
		<path fill="#0000FF" d="M169.869,388.749c-7.74,7.74-18.031,12.003-28.978,12.003c-5.877,0-11.565-1.229-16.771-3.564
			c11.646-8.271,18.709-21.278,19.252-35.659c12.032-7.358,20.372-20.086,21.794-34.772c4.496,3.313,8.298,7.526,11.127,12.361
			c3.65,6.239,5.579,13.382,5.579,20.654C181.872,370.718,177.609,381.009,169.869,388.749z"/>
	</g>
	<path fill="#FFF200" d="M114.17,322.364c-5.242-2.346-10.959-3.572-16.754-3.572c-6.617,0-13.144,1.603-18.969,4.646
		c0.194,6.871,2.107,13.588,5.563,19.495c2.83,4.838,6.632,9.052,11.13,12.365C96.439,342.137,103.406,330.075,114.17,322.364z"/>
	<path fill="#FFFFFF" d="M118.756,324.782c-5.461,3.514-10.045,8.301-13.313,13.918c-3.463,5.95-5.363,12.72-5.521,19.634
		c5.961,3.227,12.668,4.926,19.489,4.926c6.617,0,13.145-1.604,18.969-4.647c-0.196-7-2.176-13.828-5.753-19.817
		C129.209,333.072,124.434,328.253,118.756,324.782z"/>
	<path fill="#FF0000" d="M97.605,313.802c7.601,0,15.084,1.883,21.738,5.456c6.652-3.573,14.137-5.456,21.736-5.456
		c6.684,0,13.269,1.454,19.285,4.233c-0.955-9.345-5.059-18.006-11.791-24.737c-7.74-7.737-18.029-11.999-28.974-11.999
		c-10.895,0-21.15,4.229-28.879,11.906c-6.723,6.679-10.849,15.287-11.856,24.583C84.732,315.17,91.131,313.802,97.605,313.802z"/>
</g>
<g>
	<path fill="#231F20" d="M230.952,298.565h7.203l-19.853,19.852l20.205,24.304h-7.438l-16.632-20.556l-2.225,2.108v18.447h-5.505
		v-44.156h5.505v19.149L230.952,298.565z"/>
	<path fill="#231F20" d="M241.848,298.565h23.718v5.036h-18.213v12.356h17.686v5.037h-17.686v16.69h18.213v5.036h-23.718V298.565z"
		/>
	<path fill="#231F20" d="M271.835,296.457l33.147,34.727v-32.619h5.505v45.971l-33.147-34.728v32.912h-5.505V296.457z"/>
	<path fill="#231F20" d="M317.812,296.457l33.147,34.727v-32.619h5.505v45.971l-33.147-34.728v32.912h-5.505V296.457z"/>
	<path fill="#231F20" d="M364.316,298.565h23.717v5.036h-18.212v12.356h17.686v5.037h-17.686v16.69h18.212v5.036h-23.717V298.565z"
		/>
	<path fill="#231F20" d="M406.719,342.721h-5.505v-39.12H390.73v-5.036h26.471v5.036h-10.482V342.721z"/>
	<path fill="#231F20" d="M447.599,316.367v-17.802h5.505v44.156h-5.505v-21.2h-21.024v21.2h-5.505v-44.156h5.505v17.802H447.599z"/>
	<path fill="#231F20" d="M484.265,331.652l-5.036,11.068h-5.916l21.084-46.03l21.082,46.03h-5.914l-5.037-11.068H484.265z
		 M494.396,308.754l-7.848,17.862h15.695L494.396,308.754z"/>
	<path fill="#231F20" d="M518.646,296.457l33.146,34.727v-32.619h5.505v45.971l-33.146-34.728v32.912h-5.505V296.457z"/>
	<path fill="#231F20" d="M577.037,342.721h-5.505v-39.12H561.05v-5.036h26.471v5.036h-10.483V342.721z"/>
	<path fill="#231F20" d="M617.917,316.367v-17.802h5.505v44.156h-5.505v-21.2h-21.024v21.2h-5.505v-44.156h5.505v17.802H617.917z"/>
	<path fill="#231F20" d="M674.552,320.643c0,13.118-10.366,23.016-23.133,23.016s-23.132-9.897-23.132-23.016
		c0-12.649,10.482-23.015,23.132-23.015C664.069,297.627,674.552,307.993,674.552,320.643z M669.047,320.643
		c0-9.722-7.262-17.862-17.628-17.862c-10.365,0-17.627,8.14-17.627,17.862c0,10.072,8.081,17.861,17.627,17.861
		S669.047,330.715,669.047,320.643z"/>
	<path fill="#231F20" d="M679.358,296.457l33.147,34.727v-32.619h5.505v45.971l-33.147-34.728v32.912h-5.505V296.457z"/>
	<path fill="#231F20" d="M721.294,298.565h6.325l10.834,18.857l10.834-18.857h6.325l-14.406,24.947v19.209h-5.505v-19.209
		L721.294,298.565z"/>
</g>
<g>
	<path fill="#231F20" d="M206.707,369.724c1.977-0.61,2.18-2.122,2.18-4.651v-5.436c0-2.354,1.599-3.924,2.471-3.924h2.122v2.15
		h-1.163c-1.047,0-1.047,0.872-1.047,2.21v5.493c0,3.401-1.831,4.854-2.209,5.087c0.378,0.232,2.209,1.687,2.209,5.116v5.465
		c0,1.337,0,2.209,1.047,2.209h1.163v2.151h-2.122c-0.872,0-2.471-1.57-2.471-3.925v-5.406c0-2.558-0.204-4.069-2.18-4.68V369.724z"
		/>
	<path fill="#231F20" d="M232.956,376.658l6.25-16.714h2.645l-8.895,23.225l-8.895-23.225h2.646L232.956,376.658z"/>
	<path fill="#231F20" d="M246.734,381.861h-2.442v-21.917h2.442V381.861z"/>
	<path fill="#231F20" d="M261.123,364.217c-0.873-1.512-1.918-2.384-3.779-2.384c-1.947,0-3.633,1.396-3.633,3.401
		c0,1.89,1.947,2.762,3.43,3.43l1.453,0.64c2.85,1.25,5.262,2.675,5.262,6.163c0,3.837-3.082,6.772-6.889,6.772
		c-3.518,0-6.134-2.268-6.832-5.668l2.384-0.669c0.32,2.238,2.035,4.069,4.389,4.069c2.354,0,4.506-1.802,4.506-4.272
		c0-2.559-2.006-3.431-4.041-4.36l-1.338-0.581c-2.557-1.163-4.766-2.472-4.766-5.61c0-3.401,2.877-5.581,6.133-5.581
		c2.441,0,4.506,1.25,5.668,3.4L261.123,364.217z"/>
	<path fill="#231F20" d="M269.814,372.995c0,1.628-0.059,3.488,0.959,4.884c0.959,1.337,2.82,2.093,4.418,2.093
		c1.57,0,3.285-0.727,4.303-1.947c1.162-1.396,1.076-3.313,1.076-5.029v-13.051h2.441v13.72c0,2.384-0.174,4.273-1.918,6.075
		c-1.512,1.628-3.691,2.5-5.902,2.5c-2.063,0-4.186-0.785-5.668-2.238c-1.918-1.831-2.15-3.837-2.15-6.337v-13.72h2.441V372.995z"/>
	<path fill="#231F20" d="M290.627,375.641l-2.645,6.221h-2.674l10.115-22.964l9.854,22.964h-2.703l-2.586-6.221H290.627z
		 M295.365,364.595l-3.75,8.778h7.414L295.365,364.595z"/>
	<path fill="#231F20" d="M310.104,379.594h6.047v2.268h-8.488v-21.917h2.441V379.594z"/>
	<path fill="#231F20" d="M344.23,364.74c-1.744-1.802-4.156-2.907-6.686-2.907c-4.885,0-8.838,4.244-8.838,9.069
		s3.982,9.069,8.896,9.069c2.471,0,4.883-1.162,6.627-2.906v3.022c-1.891,1.366-4.215,2.151-6.541,2.151
		c-6.191,0-11.424-5.028-11.424-11.249c0-6.279,5.146-11.424,11.424-11.424c2.441,0,4.594,0.697,6.541,2.15V364.74z"/>
	<path fill="#231F20" d="M370.102,370.932c0,6.308-5.174,11.308-11.424,11.308s-11.424-5-11.424-11.308
		c0-6.278,5.174-11.365,11.424-11.365S370.102,364.653,370.102,370.932z M349.695,370.902c0,4.942,4.012,9.069,8.982,9.069
		s8.982-4.127,8.982-9.069c0-4.971-3.953-9.069-8.982-9.069S349.695,365.932,349.695,370.902z"/>
	<path fill="#231F20" d="M376.264,358.694l7.965,18.399l7.994-18.399l4.447,23.167h-2.5l-2.818-14.824h-0.059l-7.064,15.726
		l-7.033-15.726h-0.059l-2.82,14.824h-2.5L376.264,358.694z"/>
	<path fill="#231F20" d="M402.311,358.694l7.965,18.399l7.994-18.399l4.447,23.167h-2.5l-2.82-14.824h-0.059l-7.063,15.726
		l-7.035-15.726h-0.057l-2.82,14.824h-2.5L402.311,358.694z"/>
	<path fill="#231F20" d="M427.891,372.995c0,1.628-0.059,3.488,0.959,4.884c0.959,1.337,2.82,2.093,4.418,2.093
		c1.57,0,3.285-0.727,4.303-1.947c1.162-1.396,1.076-3.313,1.076-5.029v-13.051h2.441v13.72c0,2.384-0.174,4.273-1.918,6.075
		c-1.512,1.628-3.691,2.5-5.902,2.5c-2.063,0-4.186-0.785-5.668-2.238c-1.918-1.831-2.15-3.837-2.15-6.337v-13.72h2.441V372.995z"/>
	<path fill="#231F20" d="M445.564,359.014l17.092,17.906v-16.976h2.443v22.905l-17.092-17.877v16.889h-2.443V359.014z"/>
	<path fill="#231F20" d="M472.162,381.861h-2.441v-21.917h2.441V381.861z"/>
	<path fill="#231F20" d="M493.324,364.74c-1.744-1.802-4.156-2.907-6.686-2.907c-4.883,0-8.836,4.244-8.836,9.069
		s3.982,9.069,8.895,9.069c2.471,0,4.883-1.162,6.627-2.906v3.022c-1.889,1.366-4.215,2.151-6.539,2.151
		c-6.191,0-11.424-5.028-11.424-11.249c0-6.279,5.145-11.424,11.424-11.424c2.441,0,4.592,0.697,6.539,2.15V364.74z"/>
	<path fill="#231F20" d="M500.738,375.641l-2.646,6.221h-2.674l10.115-22.964l9.855,22.964h-2.703l-2.588-6.221H500.738z
		 M505.477,364.595l-3.75,8.778h7.412L505.477,364.595z"/>
	<path fill="#231F20" d="M521.26,381.861h-2.441v-19.65h-5.291v-2.267h13.082v2.267h-5.35V381.861z"/>
	<path fill="#231F20" d="M531.609,381.861h-2.443v-21.917h2.443V381.861z"/>
	<path fill="#231F20" d="M557.799,370.932c0,6.308-5.174,11.308-11.424,11.308s-11.424-5-11.424-11.308
		c0-6.278,5.174-11.365,11.424-11.365S557.799,364.653,557.799,370.932z M537.393,370.902c0,4.942,4.012,9.069,8.982,9.069
		s8.982-4.127,8.982-9.069c0-4.971-3.953-9.069-8.982-9.069S537.393,365.932,537.393,370.902z"/>
	<path fill="#231F20" d="M561.26,359.014l17.092,17.906v-16.976h2.441v22.905l-17.092-17.877v16.889h-2.441V359.014z"/>
	<path fill="#231F20" d="M600.328,371.584c-1.977,0.61-2.18,2.122-2.18,4.68v5.406c0,2.354-1.6,3.925-2.473,3.925h-2.121v-2.151
		h1.162c1.047,0,1.047-0.872,1.047-2.209v-5.465c0-3.43,1.832-4.884,2.209-5.116c-0.377-0.232-2.209-1.686-2.209-5.087v-5.493
		c0-1.338,0-2.21-1.047-2.21h-1.162v-2.15h2.121c0.873,0,2.473,1.569,2.473,3.924v5.436c0,2.529,0.203,4.041,2.18,4.651V371.584z"/>
</g>
</svg>
